<svg width="28" height="28" viewBox="0 0 28 28" fill="none" xmlns="http://www.w3.org/2000/svg">
<g filter="url(#filter0_d_65_536)">
<path fill-rule="evenodd" clip-rule="evenodd" d="M18.5823 11.985C18.3328 11.8608 17.1095 11.2625 16.8817 11.1792C16.6539 11.0967 16.4881 11.0558 16.3215 11.3042C16.1557 11.5508 15.6793 12.1092 15.5344 12.2742C15.3887 12.44 15.2438 12.46 14.9952 12.3367C14.7465 12.2117 13.9443 11.9508 12.9939 11.1075C12.2545 10.4509 11.7546 9.64002 11.6098 9.39169C11.4649 9.14419 11.5939 9.01002 11.7186 8.88669C11.8308 8.77585 11.9673 8.59752 12.0921 8.45335C12.2169 8.30835 12.2579 8.20502 12.3408 8.03919C12.4245 7.87419 12.3826 7.73002 12.3198 7.60585C12.2579 7.48169 11.7605 6.26252 11.5528 5.76669C11.351 5.28419 11.1459 5.35003 10.9935 5.34169C10.8478 5.33503 10.682 5.33336 10.5162 5.33336C10.3504 5.33336 10.0808 5.39503 9.85303 5.64336C9.62444 5.89086 8.98219 6.49002 8.98219 7.70919C8.98219 8.92752 9.87313 10.105 9.99789 10.2709C10.1227 10.4359 11.7521 12.9375 14.2482 14.01C14.8428 14.265 15.3058 14.4175 15.6667 14.5308C16.2629 14.72 16.8055 14.6933 17.2342 14.6292C17.7115 14.5583 18.7063 14.03 18.9139 13.4517C19.1208 12.8733 19.1207 12.3775 19.0588 12.2742C18.9968 12.1708 18.831 12.1092 18.5815 11.985H18.5823ZM14.0423 18.1542H14.0389C12.5563 18.1544 11.101 17.7578 9.8254 17.0058L9.52396 16.8275L6.39062 17.6458L7.22712 14.6058L7.03035 14.2942C6.20149 12.9811 5.76286 11.4615 5.76512 9.91085C5.76679 5.36919 9.47958 1.6742 14.0456 1.6742C16.2562 1.6742 18.3345 2.53253 19.897 4.08919C20.6676 4.85301 21.2785 5.76133 21.6941 6.7616C22.1098 7.76188 22.322 8.83425 22.3186 9.91668C22.3169 14.4583 18.6041 18.1542 14.0423 18.1542ZM21.086 2.9067C20.1634 1.98247 19.0657 1.24965 17.8564 0.7507C16.6472 0.251754 15.3505 -0.00339687 14.0414 3.41479e-05C8.55347 3.41479e-05 4.08541 4.44586 4.08373 9.91002C4.08119 11.649 4.53956 13.3578 5.4126 14.8642L4 20L9.27861 18.6217C10.7388 19.4134 12.3752 19.8283 14.0381 19.8283H14.0423C19.5302 19.8283 23.9983 15.3825 24 9.91752C24.004 8.61525 23.7485 7.32511 23.2484 6.12172C22.7482 4.91833 22.0132 3.82559 21.086 2.9067Z" fill="#F4D011"/>
</g>
<defs>
<filter id="filter0_d_65_536" x="0" y="0" width="28" height="28" filterUnits="userSpaceOnUse" color-interpolation-filters="sRGB">
<feFlood flood-opacity="0" result="BackgroundImageFix"/>
<feColorMatrix in="SourceAlpha" type="matrix" values="0 0 0 0 0 0 0 0 0 0 0 0 0 0 0 0 0 0 127 0" result="hardAlpha"/>
<feOffset dy="4"/>
<feGaussianBlur stdDeviation="2"/>
<feComposite in2="hardAlpha" operator="out"/>
<feColorMatrix type="matrix" values="0 0 0 0 0.254167 0 0 0 0 0.254167 0 0 0 0 0.254167 0 0 0 1 0"/>
<feBlend mode="normal" in2="BackgroundImageFix" result="effect1_dropShadow_65_536"/>
<feBlend mode="normal" in="SourceGraphic" in2="effect1_dropShadow_65_536" result="shape"/>
</filter>
</defs>
</svg>
