<svg width="31" height="31" viewBox="0 0 31 31" fill="none" xmlns="http://www.w3.org/2000/svg">
<path d="M9.63078 19.6791L14.0967 15.2132L9.63078 10.7473L10.7473 9.63077L15.2132 14.0967L19.6791 9.63077L20.7956 10.7473L16.3297 15.2132L20.7956 19.6791L19.6791 20.7956L15.2132 16.3297L10.7473 20.7956L9.63078 19.6791ZM4.6066 4.60659C7.41965 1.79355 11.235 0.213196 15.2132 0.213196C19.1915 0.213196 23.0068 1.79355 25.8198 4.60659C28.6329 7.41964 30.2132 11.2349 30.2132 15.2132C30.2132 19.1914 28.6329 23.0068 25.8198 25.8198C23.0068 28.6328 19.1915 30.2132 15.2132 30.2132C11.235 30.2132 7.41965 28.6328 4.6066 25.8198C1.79356 23.0068 0.213204 19.1914 0.213203 15.2132C0.213204 11.2349 1.79356 7.41964 4.6066 4.60659ZM5.72309 5.72308C3.20615 8.24001 1.79215 11.6537 1.79215 15.2132C1.79215 18.7727 3.20615 22.1864 5.72309 24.7033C8.24002 27.2202 11.6537 28.6342 15.2132 28.6342C18.7727 28.6342 22.1864 27.2202 24.7033 24.7033C27.2203 22.1864 28.6343 18.7727 28.6343 15.2132C28.6343 11.6537 27.2203 8.24001 24.7033 5.72308C22.1864 3.20614 18.7727 1.79214 15.2132 1.79214C11.6537 1.79214 8.24002 3.20614 5.72309 5.72308Z" fill="black"/>
</svg>
