<svg width="28" height="28" viewBox="0 0 28 28" fill="none" xmlns="http://www.w3.org/2000/svg">
<g filter="url(#filter0_d_65_542)">
<path d="M13.4736 0.002336C11.7825 0.0217139 8.14687 0.285504 6.11337 2.0564C4.60076 3.47911 4.07263 5.58256 4.01073 8.18358C3.95936 10.7752 3.89746 15.6422 8.83963 16.9674V18.9858C8.83963 18.9858 8.80868 19.7935 9.37106 19.9591C10.0638 20.1673 10.4583 19.5459 11.1168 18.8783L12.3449 17.56C15.7264 17.8269 18.3163 17.2118 18.6147 17.1206C19.3008 16.9124 23.1657 16.4436 23.7972 11.576C24.4452 6.54896 23.4818 3.3816 21.7426 1.94888H21.7321C21.2072 1.49006 19.098 0.0310904 14.3857 0.0148379C14.3857 0.0148379 14.036 -0.00704043 13.4736 0.002336ZM13.5316 1.41568C14.0116 1.41255 14.3033 1.43193 14.3033 1.43193C18.292 1.44193 20.1958 2.58148 20.6449 2.96529C22.1094 4.15672 22.8641 7.01215 22.3116 11.209C21.7867 15.2784 18.6522 15.5359 18.072 15.7116C17.8251 15.7866 15.544 16.3204 12.6702 16.1448C12.6702 16.1448 10.53 18.5964 9.86099 19.2278C9.75497 19.3384 9.63117 19.3709 9.55215 19.3547C9.43888 19.3284 9.40464 19.1953 9.41123 19.0127L9.43164 15.6628C5.24018 14.5627 5.48712 10.4114 5.5319 8.24296C5.58327 6.07451 6.01196 4.30049 7.28817 3.09906C9.00624 1.62446 12.0934 1.42568 13.5302 1.41568H13.5316ZM13.8477 3.58351C13.8132 3.58318 13.7789 3.58933 13.747 3.60161C13.715 3.6139 13.6859 3.63207 13.6613 3.65508C13.6368 3.67809 13.6173 3.70549 13.6039 3.73569C13.5906 3.76589 13.5837 3.7983 13.5836 3.83104C13.5836 3.97106 13.7034 4.08171 13.8477 4.08171C14.5006 4.06992 15.1495 4.18095 15.757 4.4084C16.3645 4.63584 16.9185 4.9752 17.3872 5.40691C18.344 6.28892 18.8102 7.4741 18.828 9.02371C18.828 9.1606 18.9446 9.27437 19.0921 9.27437V9.26437C19.1616 9.26454 19.2284 9.23861 19.2778 9.19224C19.3273 9.14587 19.3555 9.08282 19.3561 9.01683C19.3881 8.28744 19.2635 7.55949 18.9899 6.87723C18.7163 6.19498 18.2994 5.57266 17.7645 5.0481C16.7221 4.08108 15.4011 3.58288 13.8477 3.58288V3.58351ZM10.3766 4.15672C10.1902 4.13087 10.0001 4.16638 9.83794 4.25736H9.82412C9.44762 4.46685 9.10845 4.73163 8.81922 5.04185C8.57886 5.30564 8.44847 5.57256 8.41423 5.82947C8.39382 5.98262 8.40765 6.13577 8.45572 6.28204L8.47284 6.29204C8.74349 7.04716 9.09711 7.77352 9.5291 8.45737C10.0856 9.41811 10.7704 10.3066 11.5666 11.1009L11.5903 11.1334L11.6278 11.1597L11.6515 11.1859L11.6792 11.2084C12.5189 11.9664 13.4572 12.6195 14.4713 13.1518C15.6303 13.7507 16.3336 14.0338 16.7557 14.1514V14.1576C16.8795 14.1932 16.9921 14.2095 17.1053 14.2095C17.4651 14.1845 17.8056 14.0458 18.0727 13.8157C18.398 13.5411 18.6739 13.2178 18.8893 12.8587V12.8524C19.0914 12.4911 19.0229 12.1492 18.7312 11.9179C18.147 11.4331 17.5152 11.0026 16.8446 10.6321C16.3955 10.4008 15.9391 10.5408 15.7541 10.7752L15.3596 11.2472C15.1574 11.4816 14.79 11.4491 14.79 11.4491L14.7795 11.4553C12.0394 10.7909 11.3084 8.15733 11.3084 8.15733C11.3084 8.15733 11.2742 7.79915 11.5277 7.61662L12.0216 7.23906C12.258 7.05653 12.4226 6.62397 12.1691 6.19703C11.7815 5.55953 11.3289 4.95968 10.8178 4.40613C10.7061 4.27563 10.5493 4.18684 10.3753 4.15547L10.3766 4.15672ZM14.3033 4.89933C13.9537 4.89933 13.9537 5.40066 14.3066 5.40066C14.7414 5.40735 15.1706 5.49532 15.5696 5.65953C15.9685 5.82374 16.3295 6.06098 16.6319 6.35768C16.9077 6.64648 17.1196 6.98489 17.2551 7.35285C17.3906 7.72082 17.447 8.11087 17.4208 8.49988C17.422 8.56571 17.4503 8.62848 17.4996 8.67475C17.549 8.72101 17.6155 8.7471 17.6848 8.74742L17.6954 8.76054C17.7652 8.76005 17.8321 8.73349 17.8815 8.68658C17.9309 8.63968 17.9589 8.57621 17.9594 8.50988C17.9831 7.5166 17.6578 6.68335 17.0197 6.01575C16.3783 5.34815 15.4834 4.97372 14.3409 4.89933H14.3033ZM14.736 6.24704C14.3758 6.23703 14.362 6.74836 14.7189 6.75836C15.5868 6.80087 16.0082 7.21718 16.0636 8.07356C16.0648 8.13857 16.0927 8.20054 16.1415 8.24622C16.1902 8.2919 16.2558 8.31766 16.3243 8.31798H16.3349C16.3701 8.31654 16.4046 8.30847 16.4365 8.29422C16.4684 8.27997 16.497 8.25983 16.5206 8.23498C16.5442 8.21014 16.5624 8.18108 16.574 8.1495C16.5856 8.11792 16.5905 8.08445 16.5884 8.05106C16.5265 6.93464 15.8851 6.3058 14.7465 6.24766H14.736V6.24704Z" fill="#F4D011"/>
</g>
<defs>
<filter id="filter0_d_65_542" x="0" y="0" width="28" height="28" filterUnits="userSpaceOnUse" color-interpolation-filters="sRGB">
<feFlood flood-opacity="0" result="BackgroundImageFix"/>
<feColorMatrix in="SourceAlpha" type="matrix" values="0 0 0 0 0 0 0 0 0 0 0 0 0 0 0 0 0 0 127 0" result="hardAlpha"/>
<feOffset dy="4"/>
<feGaussianBlur stdDeviation="2"/>
<feComposite in2="hardAlpha" operator="out"/>
<feColorMatrix type="matrix" values="0 0 0 0 0.254167 0 0 0 0 0.254167 0 0 0 0 0.254167 0 0 0 1 0"/>
<feBlend mode="normal" in2="BackgroundImageFix" result="effect1_dropShadow_65_542"/>
<feBlend mode="normal" in="SourceGraphic" in2="effect1_dropShadow_65_542" result="shape"/>
</filter>
</defs>
</svg>
