<svg width="38" height="38" viewBox="0 0 38 38" fill="none" xmlns="http://www.w3.org/2000/svg">
<g filter="url(#filter0_d_100_331)">
<path d="M34 15C34 23.2843 27.2843 30 19 30C10.7157 30 4 23.2843 4 15C4 6.71573 10.7157 0 19 0C27.2843 0 34 6.71573 34 15Z" fill="#F2F2F2"/>
<path fill-rule="evenodd" clip-rule="evenodd" d="M5.875 15C5.875 18.481 7.25781 21.8194 9.71922 24.2808C12.1806 26.7422 15.519 28.125 19 28.125C22.481 28.125 25.8194 26.7422 28.2808 24.2808C30.7422 21.8194 32.125 18.481 32.125 15C32.125 11.519 30.7422 8.18064 28.2808 5.71922C25.8194 3.25781 22.481 1.875 19 1.875C15.519 1.875 12.1806 3.25781 9.71922 5.71922C7.25781 8.18064 5.875 11.519 5.875 15ZM34 15C34 18.9782 32.4196 22.7936 29.6066 25.6066C26.7936 28.4196 22.9782 30 19 30C15.0218 30 11.2064 28.4196 8.3934 25.6066C5.58035 22.7936 4 18.9782 4 15C4 11.0218 5.58035 7.20644 8.3934 4.3934C11.2064 1.58035 15.0218 0 19 0C22.9782 0 26.7936 1.58035 29.6066 4.3934C32.4196 7.20644 34 11.0218 34 15ZM25.5625 14.0625C25.8111 14.0625 26.0496 14.1613 26.2254 14.3371C26.4012 14.5129 26.5 14.7514 26.5 15C26.5 15.2486 26.4012 15.4871 26.2254 15.6629C26.0496 15.8387 25.8111 15.9375 25.5625 15.9375H14.7006L18.7262 19.9613C18.8134 20.0484 18.8826 20.1519 18.9297 20.2658C18.9769 20.3797 19.0012 20.5017 19.0012 20.625C19.0012 20.7483 18.9769 20.8703 18.9297 20.9842C18.8826 21.0981 18.8134 21.2016 18.7262 21.2887C18.6391 21.3759 18.5356 21.4451 18.4217 21.4922C18.3078 21.5394 18.1858 21.5637 18.0625 21.5637C17.9392 21.5637 17.8172 21.5394 17.7033 21.4922C17.5894 21.4451 17.4859 21.3759 17.3988 21.2887L11.7737 15.6637C11.6864 15.5767 11.6172 15.4732 11.5699 15.3593C11.5227 15.2454 11.4983 15.1233 11.4983 15C11.4983 14.8767 11.5227 14.7546 11.5699 14.6407C11.6172 14.5268 11.6864 14.4233 11.7737 14.3363L17.3988 8.71125C17.5748 8.53521 17.8135 8.43632 18.0625 8.43632C18.3115 8.43632 18.5502 8.53521 18.7262 8.71125C18.9023 8.88729 19.0012 9.12605 19.0012 9.375C19.0012 9.62395 18.9023 9.86271 18.7262 10.0387L14.7006 14.0625H25.5625Z" fill="#252525"/>
</g>
<defs>
<filter id="filter0_d_100_331" x="0" y="0" width="38" height="38" filterUnits="userSpaceOnUse" color-interpolation-filters="sRGB">
<feFlood flood-opacity="0" result="BackgroundImageFix"/>
<feColorMatrix in="SourceAlpha" type="matrix" values="0 0 0 0 0 0 0 0 0 0 0 0 0 0 0 0 0 0 127 0" result="hardAlpha"/>
<feOffset dy="4"/>
<feGaussianBlur stdDeviation="2"/>
<feComposite in2="hardAlpha" operator="out"/>
<feColorMatrix type="matrix" values="0 0 0 0 0 0 0 0 0 0 0 0 0 0 0 0 0 0 0.25 0"/>
<feBlend mode="normal" in2="BackgroundImageFix" result="effect1_dropShadow_100_331"/>
<feBlend mode="normal" in="SourceGraphic" in2="effect1_dropShadow_100_331" result="shape"/>
</filter>
</defs>
</svg>
