<svg width="176" height="60" viewBox="0 0 176 60" fill="none" xmlns="http://www.w3.org/2000/svg">
<rect width="60" height="60" fill="#252525"/>
<path d="M65.9083 23.8H68.5003V35H65.9083V23.8Z" fill="white"/>
<path d="M80.7743 26.264C81.841 26.264 82.6997 26.584 83.3503 27.224C84.0117 27.864 84.3423 28.8133 84.3423 30.072V35H81.8463V30.456C81.8463 29.7733 81.697 29.2667 81.3983 28.936C81.0996 28.5947 80.6676 28.424 80.1023 28.424C79.473 28.424 78.9716 28.6213 78.5983 29.016C78.225 29.4 78.0383 29.976 78.0383 30.744V35H75.5423V26.392H77.9263V27.4C78.257 27.0373 78.6676 26.76 79.1583 26.568C79.649 26.3653 80.1876 26.264 80.7743 26.264Z" fill="white"/>
<path d="M93.9008 26.584H96.1088V28.504H93.9648V35H91.4688V28.504H90.1408V26.584H91.4688V26.2C91.4688 25.2187 91.7568 24.44 92.3328 23.864C92.9195 23.288 93.7408 23 94.7968 23C95.1702 23 95.5221 23.0427 95.8528 23.128C96.1941 23.2027 96.4768 23.3147 96.7008 23.464L96.0448 25.272C95.7568 25.0693 95.4208 24.968 95.0368 24.968C94.2795 24.968 93.9008 25.384 93.9008 26.216V26.584Z" fill="white"/>
<path d="M102.7 35.128C102.263 35.128 101.895 34.9787 101.596 34.68C101.297 34.3813 101.148 34.008 101.148 33.56C101.148 33.1013 101.297 32.7333 101.596 32.456C101.895 32.168 102.263 32.024 102.7 32.024C103.137 32.024 103.505 32.168 103.804 32.456C104.103 32.7333 104.252 33.1013 104.252 33.56C104.252 34.008 104.103 34.3813 103.804 34.68C103.505 34.9787 103.137 35.128 102.7 35.128Z" fill="white"/>
<path d="M115.727 35.192C114.586 35.192 113.551 34.9467 112.623 34.456C111.706 33.9547 110.98 33.2667 110.447 32.392C109.924 31.5067 109.663 30.5093 109.663 29.4C109.663 28.2907 109.924 27.2987 110.447 26.424C110.98 25.5387 111.706 24.8507 112.623 24.36C113.551 23.8587 114.591 23.608 115.743 23.608C116.714 23.608 117.588 23.7787 118.367 24.12C119.156 24.4613 119.818 24.952 120.351 25.592L118.687 27.128C117.93 26.2533 116.991 25.816 115.871 25.816C115.178 25.816 114.559 25.9707 114.015 26.28C113.471 26.5787 113.044 27 112.735 27.544C112.436 28.088 112.287 28.7067 112.287 29.4C112.287 30.0933 112.436 30.712 112.735 31.256C113.044 31.8 113.471 32.2267 114.015 32.536C114.559 32.8347 115.178 32.984 115.871 32.984C116.991 32.984 117.93 32.5413 118.687 31.656L120.351 33.192C119.818 33.8427 119.156 34.3387 118.367 34.68C117.578 35.0213 116.698 35.192 115.727 35.192Z" fill="white"/>
<path d="M130.16 35.128C129.253 35.128 128.437 34.9413 127.712 34.568C126.997 34.184 126.437 33.656 126.032 32.984C125.626 32.312 125.424 31.5493 125.424 30.696C125.424 29.8427 125.626 29.08 126.032 28.408C126.437 27.736 126.997 27.2133 127.712 26.84C128.437 26.456 129.253 26.264 130.16 26.264C131.066 26.264 131.877 26.456 132.592 26.84C133.306 27.2133 133.866 27.736 134.272 28.408C134.677 29.08 134.88 29.8427 134.88 30.696C134.88 31.5493 134.677 32.312 134.272 32.984C133.866 33.656 133.306 34.184 132.592 34.568C131.877 34.9413 131.066 35.128 130.16 35.128ZM130.16 33.08C130.8 33.08 131.322 32.8667 131.728 32.44C132.144 32.0027 132.352 31.4213 132.352 30.696C132.352 29.9707 132.144 29.3947 131.728 28.968C131.322 28.5307 130.8 28.312 130.16 28.312C129.52 28.312 128.992 28.5307 128.576 28.968C128.16 29.3947 127.952 29.9707 127.952 30.696C127.952 31.4213 128.16 32.0027 128.576 32.44C128.992 32.8667 129.52 33.08 130.16 33.08Z" fill="white"/>
<path d="M149.78 26.392V35H147.412V33.976C147.081 34.3493 146.687 34.6373 146.228 34.84C145.769 35.032 145.273 35.128 144.74 35.128C143.609 35.128 142.713 34.8027 142.052 34.152C141.391 33.5013 141.06 32.536 141.06 31.256V26.392H143.556V30.888C143.556 32.2747 144.137 32.968 145.3 32.968C145.897 32.968 146.377 32.776 146.74 32.392C147.103 31.9973 147.284 31.416 147.284 30.648V26.392H149.78Z" fill="white"/>
<path d="M159.036 27.528C159.335 27.112 159.735 26.7973 160.236 26.584C160.748 26.3707 161.335 26.264 161.996 26.264V28.568C161.719 28.5467 161.532 28.536 161.436 28.536C160.722 28.536 160.162 28.7387 159.756 29.144C159.351 29.5387 159.148 30.136 159.148 30.936V35H156.652V26.392H159.036V27.528Z" fill="white"/>
<path d="M170.968 35.128C170.253 35.128 169.554 35.0427 168.872 34.872C168.189 34.6907 167.645 34.4667 167.24 34.2L168.072 32.408C168.456 32.6533 168.92 32.856 169.464 33.016C170.008 33.1653 170.541 33.24 171.064 33.24C172.12 33.24 172.648 32.9787 172.648 32.456C172.648 32.2107 172.504 32.0347 172.216 31.928C171.928 31.8213 171.485 31.7307 170.888 31.656C170.184 31.5493 169.602 31.4267 169.144 31.288C168.685 31.1493 168.285 30.904 167.944 30.552C167.613 30.2 167.448 29.6987 167.448 29.048C167.448 28.504 167.602 28.024 167.912 27.608C168.232 27.1813 168.69 26.8507 169.288 26.616C169.896 26.3813 170.61 26.264 171.432 26.264C172.04 26.264 172.642 26.3333 173.24 26.472C173.848 26.6 174.349 26.7813 174.744 27.016L173.912 28.792C173.154 28.3653 172.328 28.152 171.432 28.152C170.898 28.152 170.498 28.2267 170.232 28.376C169.965 28.5253 169.832 28.7173 169.832 28.952C169.832 29.2187 169.976 29.4053 170.264 29.512C170.552 29.6187 171.01 29.72 171.64 29.816C172.344 29.9333 172.92 30.0613 173.368 30.2C173.816 30.328 174.205 30.568 174.536 30.92C174.866 31.272 175.032 31.7627 175.032 32.392C175.032 32.9253 174.872 33.4 174.552 33.816C174.232 34.232 173.762 34.5573 173.144 34.792C172.536 35.016 171.81 35.128 170.968 35.128Z" fill="white"/>
<path d="M35.6 16V21.6H32.8V38.4H35.6V44H24.4V38.4H27.2V21.6H24.4V16H35.6ZM30 2C33.677 2 37.318 2.72424 40.7151 4.13137C44.1123 5.5385 47.1989 7.60097 49.799 10.201C52.399 12.8011 54.4615 15.8877 55.8686 19.2849C57.2758 22.682 58 26.323 58 30C58 37.4261 55.05 44.548 49.799 49.799C44.548 55.05 37.4261 58 30 58C26.323 58 22.682 57.2758 19.2849 55.8686C15.8877 54.4615 12.8011 52.399 10.201 49.799C4.94999 44.548 2 37.4261 2 30C2 22.5739 4.94999 15.452 10.201 10.201C15.452 4.94999 22.5739 2 30 2ZM30 7.6C24.0592 7.6 18.3616 9.95999 14.1608 14.1608C9.95999 18.3616 7.6 24.0592 7.6 30C7.6 35.9408 9.95999 41.6384 14.1608 45.8392C18.3616 50.04 24.0592 52.4 30 52.4C35.9408 52.4 41.6384 50.04 45.8392 45.8392C50.04 41.6384 52.4 35.9408 52.4 30C52.4 24.0592 50.04 18.3616 45.8392 14.1608C41.6384 9.95999 35.9408 7.6 30 7.6Z" fill="url(#paint0_linear_11_2048)"/>
<defs>
<linearGradient id="paint0_linear_11_2048" x1="30" y1="58" x2="30" y2="2" gradientUnits="userSpaceOnUse">
<stop stop-color="#FFC737"/>
<stop offset="1" stop-color="#F4D011"/>
</linearGradient>
</defs>
</svg>
