<svg width="38" height="38" viewBox="0 0 38 38" fill="none" xmlns="http://www.w3.org/2000/svg">
<g filter="url(#filter0_d_100_332)">
<path d="M4 15C4 6.71573 10.7157 0 19 0C27.2843 0 34 6.71573 34 15C34 23.2843 27.2843 30 19 30C10.7157 30 4 23.2843 4 15Z" fill="#F2F2F2"/>
<path fill-rule="evenodd" clip-rule="evenodd" d="M32.125 15C32.125 11.519 30.7422 8.18064 28.2808 5.71922C25.8194 3.25781 22.481 1.875 19 1.875C15.519 1.875 12.1806 3.25781 9.71922 5.71922C7.25781 8.18064 5.875 11.519 5.875 15C5.875 18.481 7.25781 21.8194 9.71922 24.2808C12.1806 26.7422 15.519 28.125 19 28.125C22.481 28.125 25.8194 26.7422 28.2808 24.2808C30.7422 21.8194 32.125 18.481 32.125 15ZM4 15C4 11.0218 5.58035 7.20644 8.3934 4.3934C11.2064 1.58035 15.0218 0 19 0C22.9782 0 26.7936 1.58035 29.6066 4.3934C32.4196 7.20644 34 11.0218 34 15C34 18.9782 32.4196 22.7936 29.6066 25.6066C26.7936 28.4196 22.9782 30 19 30C15.0218 30 11.2064 28.4196 8.3934 25.6066C5.58035 22.7936 4 18.9782 4 15ZM12.4375 15.9375C12.1889 15.9375 11.9504 15.8387 11.7746 15.6629C11.5988 15.4871 11.5 15.2486 11.5 15C11.5 14.7514 11.5988 14.5129 11.7746 14.3371C11.9504 14.1613 12.1889 14.0625 12.4375 14.0625H23.2994L19.2738 10.0387C19.1866 9.95158 19.1174 9.8481 19.0703 9.73422C19.0231 9.62033 18.9988 9.49827 18.9988 9.375C18.9988 9.25173 19.0231 9.12967 19.0703 9.01578C19.1174 8.9019 19.1866 8.79842 19.2738 8.71125C19.3609 8.62408 19.4644 8.55494 19.5783 8.50777C19.6922 8.4606 19.8142 8.43632 19.9375 8.43632C20.0608 8.43632 20.1828 8.4606 20.2967 8.50777C20.4106 8.55494 20.5141 8.62408 20.6012 8.71125L26.2263 14.3363C26.3136 14.4233 26.3828 14.5268 26.4301 14.6407C26.4773 14.7546 26.5017 14.8767 26.5017 15C26.5017 15.1233 26.4773 15.2454 26.4301 15.3593C26.3828 15.4732 26.3136 15.5767 26.2263 15.6637L20.6012 21.2887C20.4252 21.4648 20.1865 21.5637 19.9375 21.5637C19.6885 21.5637 19.4498 21.4648 19.2738 21.2887C19.0977 21.1127 18.9988 20.874 18.9988 20.625C18.9988 20.376 19.0977 20.1373 19.2738 19.9613L23.2994 15.9375H12.4375Z" fill="#252525"/>
</g>
<defs>
<filter id="filter0_d_100_332" x="0" y="0" width="38" height="38" filterUnits="userSpaceOnUse" color-interpolation-filters="sRGB">
<feFlood flood-opacity="0" result="BackgroundImageFix"/>
<feColorMatrix in="SourceAlpha" type="matrix" values="0 0 0 0 0 0 0 0 0 0 0 0 0 0 0 0 0 0 127 0" result="hardAlpha"/>
<feOffset dy="4"/>
<feGaussianBlur stdDeviation="2"/>
<feComposite in2="hardAlpha" operator="out"/>
<feColorMatrix type="matrix" values="0 0 0 0 0 0 0 0 0 0 0 0 0 0 0 0 0 0 0.25 0"/>
<feBlend mode="normal" in2="BackgroundImageFix" result="effect1_dropShadow_100_332"/>
<feBlend mode="normal" in="SourceGraphic" in2="effect1_dropShadow_100_332" result="shape"/>
</filter>
</defs>
</svg>
